<svg width="389" height="158" viewBox="0 0 389 158" fill="none" xmlns="http://www.w3.org/2000/svg">
<path fill-rule="evenodd" clip-rule="evenodd" d="M97.4613 95H139.446C140.412 94.9988 141.195 94.2034 141.196 93.2219V48.7781C141.195 47.7966 140.412 47.0012 139.446 47H97.4613C96.4956 47.0012 95.7131 47.7966 95.7119 48.7781V93.2219C95.7131 94.2034 96.4956 94.9988 97.4613 95ZM96.4117 48.7781C96.4124 48.1892 96.8819 47.7119 97.4614 47.7112H139.446C140.026 47.7119 140.495 48.1892 140.496 48.7781V93.2219C140.495 93.8108 140.026 94.2881 139.446 94.2888H97.4614C96.8819 94.2881 96.4124 93.8108 96.4117 93.2219V48.7781Z" fill="#ECEEF5"/>
<path opacity="0.8" d="M105.637 56C104.966 56 104.422 56.8954 104.422 58C104.422 59.1046 104.966 60 105.637 60H130.303C130.974 60 131.518 59.1046 131.518 58C131.518 56.8954 130.974 56 130.303 56H105.637Z" fill="#9698D6"/>
<path opacity="0.8" d="M105.64 62C105.205 61.9987 104.803 62.3796 104.585 62.9989C104.367 63.6183 104.367 64.3817 104.585 65.0011C104.803 65.6204 105.205 66.0013 105.64 66H130.303C130.974 66 131.518 65.1046 131.518 64C131.518 62.8954 130.974 62 130.303 62H105.64Z" fill="#9698D6"/>
<path d="M117.486 85C114.551 85 111.904 83.1727 110.781 80.3702C109.657 77.5677 110.278 74.3418 112.354 72.1969C114.43 70.0519 117.552 69.4103 120.264 70.5711C122.976 71.732 124.744 74.4667 124.744 77.5001C124.74 81.6403 121.493 84.9953 117.486 85Z" fill="#F6933E"/>
<path d="M109.908 26.1233C119.413 24.2657 129.214 24.7823 138.483 27.6292C143.143 29.052 147.619 31.0415 151.818 33.555C156.096 36.1199 159.962 39.2773 163.681 42.6204C167.449 46.007 171.093 49.5443 175.026 52.7326C186.255 61.9382 200.195 66.9677 214.571 66.9999C215.759 67.0019 216.945 66.9683 218.131 66.8993C218.774 66.863 218.778 65.8324 218.131 65.869C203.478 66.6965 189.007 62.2119 177.253 53.2001C173.176 50.0738 169.454 46.4991 165.654 43.0351C161.97 39.6768 158.187 36.4099 154.007 33.7118C133.359 20.3707 107.003 20.8196 86.8164 34.7806C87.027 35.0096 87.2247 35.3151 87.3976 35.6263C94.1927 30.9517 101.846 27.7146 109.908 26.1233Z" fill="#ECEEF5"/>
<path d="M83.1313 43C85.8037 43 87.97 40.7614 87.97 38C87.97 35.2386 85.8037 33 83.1313 33C80.459 33 78.2926 35.2386 78.2926 38C78.2926 40.7614 80.459 43 83.1313 43Z" fill="#ECEEF5"/>
<path d="M276.68 114C279.352 114 281.518 111.761 281.518 109C281.518 106.239 279.352 104 276.68 104C274.007 104 271.841 106.239 271.841 109C271.841 111.761 274.007 114 276.68 114Z" fill="#ECEEF5"/>
<path fill-rule="evenodd" clip-rule="evenodd" d="M219.402 77H302.99C303.958 76.9989 304.743 76.1975 304.744 75.2086V30.7914C304.743 29.8025 303.958 29.0012 302.99 29H219.402C218.433 29.0012 217.649 29.8025 217.647 30.7914V75.2086C217.649 76.1975 218.433 76.9988 219.402 77ZM218.349 30.7914C218.35 30.198 218.821 29.7172 219.402 29.7166H302.99C303.571 29.7172 304.042 30.198 304.043 30.7914V75.2086C304.042 75.8019 303.571 76.2828 302.99 76.2834H219.402C218.821 76.2828 218.35 75.8019 218.349 75.2086V30.7914Z" fill="#ECEEF5"/>
<path d="M231.68 53C235.688 53 238.938 49.6421 238.938 45.5C238.938 41.3579 235.688 38 231.68 38C227.671 38 224.422 41.3579 224.422 45.5C224.422 49.6421 227.671 53 231.68 53Z" fill="#F6933E"/>
<path opacity="0.8" d="M250.752 39C250.335 38.9987 249.949 39.3796 249.74 39.9989C249.531 40.6183 249.531 41.3817 249.74 42.0011C249.949 42.6204 250.335 43.0013 250.752 43H294.867C295.512 43 296.035 42.1046 296.035 41C296.035 39.8954 295.512 39 294.867 39H250.752Z" fill="#9698D6"/>
<path opacity="0.8" d="M247.898 47C247.463 46.9987 247.061 47.3796 246.843 47.9989C246.625 48.6183 246.625 49.3817 246.843 50.0011C247.061 50.6204 247.463 51.0013 247.898 51H272.561C273.232 51 273.777 50.1046 273.777 49C273.777 47.8954 273.232 47 272.561 47H247.898Z" fill="#9698D6"/>
<path opacity="0.8" d="M226.043 58C225.149 58 224.422 58.8973 224.422 60C224.422 61.1027 225.149 62 226.043 62H291.51C292.404 62 293.131 61.1027 293.131 60C293.131 58.8973 292.404 58 291.51 58H226.043Z" fill="#9698D6"/>
<path opacity="0.8" d="M226.043 66C225.149 66 224.422 66.8974 224.422 68C224.422 69.1026 225.149 70 226.043 70H291.51C292.404 70 293.131 69.1026 293.131 68C293.131 66.8974 292.404 66 291.51 66H226.043Z" fill="#9698D6"/>
<path d="M226.557 115.809C228.922 116.878 231.262 118.018 233.709 118.862C235.768 119.569 237.877 120.102 240.015 120.453C244.306 121.153 248.67 121.181 252.969 120.537C257.289 119.896 261.5 118.592 265.47 116.666C268.073 115.41 270.546 113.878 272.853 112.094C272.501 111.507 272.506 111.534 272.318 111.167C270.399 112.658 268.359 113.972 266.22 115.091C262.347 117.119 258.216 118.533 253.958 119.286C249.686 120.053 245.33 120.133 241.036 119.524C238.894 119.215 236.778 118.725 234.709 118.059C232.332 117.236 230.001 116.272 227.726 115.171C223.091 113.051 217.941 110.976 212.848 112.438C212.265 112.609 211.694 112.827 211.14 113.087C210.54 113.364 211.058 114.299 211.654 114.024C216.526 111.773 221.965 113.735 226.557 115.809Z" fill="#ECEEF5"/>
<path d="M209.905 127H170.228L179.566 110.248C179.906 109.637 180.536 109.26 181.217 109.26C181.898 109.26 182.528 109.637 182.868 110.248L186.857 117.404L193.639 105.236C194.066 104.471 194.854 104 195.707 104C196.56 104 197.348 104.471 197.774 105.236L209.905 127Z" fill="#F6933E"/>
<path fill-rule="evenodd" clip-rule="evenodd" d="M167.139 127H209.124C210.09 126.999 210.872 126.185 210.873 125.181V100.819C210.872 99.8148 210.09 99.0012 209.124 99H167.139C166.173 99.0012 165.391 99.8148 165.389 100.819V125.181C165.391 126.185 166.173 126.999 167.139 127ZM166.089 100.819C166.09 100.216 166.559 99.7282 167.139 99.7275L209.124 99.7275C209.703 99.7282 210.173 100.216 210.174 100.819V125.181C210.173 125.784 209.703 126.272 209.124 126.273H167.139C166.559 126.272 166.09 125.784 166.089 125.181V100.819Z" fill="#ECEEF5"/>
<path d="M292.802 107.331L285.216 111.186C282.509 112.561 279.896 112.326 278.895 109.457C278.414 108.076 278.558 106.553 279.291 105.287C280.024 104.021 281.273 103.138 282.711 102.869L289.92 101.523L320.797 91.2715L339.501 78L346.357 88.931L324.745 100.601L292.802 107.331Z" fill="#FFB8B8"/>
<path d="M382.164 215.092L375.136 218.067L341.593 172.454L331.051 226L324.023 224.678C319.514 178.514 315.838 131.427 320.349 109.157L346.385 108L358.204 147.003L363.955 173.445L382.164 215.092Z" fill="#2F2E41"/>
<path d="M337.647 61C344.061 61 349.26 55.6274 349.26 49C349.26 42.3726 344.061 37 337.647 37C331.234 37 326.035 42.3726 326.035 49C326.035 55.6274 331.234 61 337.647 61Z" fill="#FFB8B8"/>
<path d="M350.228 75L334.78 71.6071L332.809 58.375L343.655 56L350.228 75Z" fill="#FFB8B8"/>
<path d="M347.013 109H319.26L325.516 93.2978C325.061 87.8949 327.352 83.921 330.63 80.4613L334.789 70.0222C341.508 65.6006 346.574 65.9309 351.969 71.6738C358.365 80.7278 353.938 94.3383 347.013 109Z" fill="#F6933E"/>
<path d="M333.535 142.423L332.77 151.247C332.496 154.397 330.917 156.572 327.974 155.867C326.557 155.528 325.352 154.557 324.674 153.21C323.996 151.863 323.914 150.273 324.447 148.856L327.124 141.751L334.817 108.842L333.535 85H346.357L344.754 110.521L333.535 142.423Z" fill="#FFB8B8"/>
<path d="M347.325 86H332.809L333.826 76.9932C333.965 73.7646 336.669 71.1692 340.062 71.0078C341.814 70.9245 343.529 71.5113 344.823 72.6375C346.118 73.7638 346.885 75.3358 346.954 77.0032L347.325 86Z" fill="#F6933E"/>
<path d="M350.712 37C353.117 37 355.067 34.9853 355.067 32.5C355.067 30.0147 353.117 28 350.712 28C348.307 28 346.357 30.0147 346.357 32.5C346.357 34.9853 348.307 37 350.712 37Z" fill="#2F2E41"/>
<path d="M345.932 29.2498C346.079 26.8787 347.96 25.0358 350.228 25.0415C350.139 25.0297 350.051 25.0154 349.961 25.0093C347.593 24.8512 345.551 26.7333 345.398 29.2138C345.246 31.6944 347.042 33.8349 349.409 33.9958C349.5 34.0019 349.589 33.9995 349.678 33.9997C347.428 33.7011 345.788 31.621 345.932 29.2498Z" fill="#2F2E41"/>
<path d="M346.082 33.2244C342.362 29.915 331.692 34.1211 331.003 36.3461C325.972 37.0813 322.164 40.2288 322.164 45.8253V45.8253C325.154 47.1392 328.556 46.9773 332.233 45.8253C338.095 50.9478 338.496 57.3874 334.932 64.7838L339.317 64.8778L344.753 56.3578L345.013 65L355.066 64.7838V52.399C355.098 48.2811 354.215 44.2144 352.488 40.5362C350.921 37.2725 348.49 35.3668 346.082 33.2244Z" fill="#2F2E41"/>
<path d="M337.647 56C338.716 56 339.583 54.8807 339.583 53.5C339.583 52.1193 338.716 51 337.647 51C336.579 51 335.712 52.1193 335.712 53.5C335.712 54.8807 336.579 56 337.647 56Z" fill="#FFB8B8"/>
<path d="M73.4539 54.9371C73.4539 54.9371 74.6592 32.6927 80.9166 37.7472C87.1741 42.8017 78.1839 57 78.1839 57L73.4539 54.9371Z" fill="#FFB9B9"/>
<path d="M48.291 123C48.291 123 62.5578 139.79 54.5758 140.944C46.5938 142.098 43.4539 125.127 43.4539 125.127L48.291 123Z" fill="#FFB9B9"/>
<path d="M30.3367 43.0888C34.0863 44.0973 36.8774 47.3076 37.4169 51.2322L42.0646 85.0449L48.5801 112.017C48.5801 112.017 51.8378 115.014 50.5347 116.679C49.2316 118.343 52.1636 125.336 52.1636 125.336L44.0192 128C44.0192 128 43.0419 121.007 41.413 120.674C39.9815 120.382 23.9569 76.6265 20.0943 66.0266C19.5617 64.565 19.2603 63.7338 19.2603 63.7338C19.2603 63.7338 19.9119 41.4238 30.3367 43.0888Z" fill="#575A89"/>
<path d="M7.64744 116.512L12.4862 174.533C12.4862 174.533 12.6475 209.217 17.8088 215.93C22.97 222.643 23.1313 226 23.1313 226L33.7765 220.566C33.7765 220.566 28.2926 211.51 29.4216 210.124C30.1176 209.245 30.6129 208.227 30.8733 207.139L27.97 171.336L33.4539 109L7.64744 116.512Z" fill="#2F2E41"/>
<path d="M48.7299 115.637L51.1958 170.319C51.1958 170.319 28.694 219.761 26.2281 221.071C24.7436 221.885 23.6319 223.302 23.1457 225L9.58292 221.398L15.7478 210.92L29.3105 175.885C29.3105 175.885 31.4682 174.903 32.0847 171.628C32.7012 168.354 33.9342 168.354 30.8518 167.699C27.7693 167.044 27.7693 163.77 27.7693 163.77L17.5973 114L48.7299 115.637Z" fill="#2F2E41"/>
<path d="M49.283 22.2457C50.3866 15.2185 45.7682 8.59743 38.9677 7.45708C32.1671 6.31672 25.7595 11.0889 24.656 18.1161C23.5524 25.1433 28.1707 31.7644 34.9713 32.9047C41.7718 34.0451 48.1794 29.2729 49.283 22.2457Z" fill="#FFB9B9"/>
<path d="M26.4137 20C26.4137 20 25.4555 36.1281 24.1778 37.7092C22.9001 39.2904 37.5936 38.9742 37.5936 38.9742C37.5936 38.9742 36.6353 25.376 37.5936 24.1111C38.5518 22.8461 26.4137 20 26.4137 20Z" fill="#FFB9B9"/>
<path d="M48.2926 121C48.2926 121 13.1997 117.749 6.67973 121C6.67973 121 9.07994 111.677 8.45975 110.703C8.0087 109.991 9.2531 83.4354 8.86247 68.1169C8.64097 59.4732 6.73611 51.0318 12.2735 44.6143C14.1582 42.4344 16.2604 40.6044 18.4794 39.7105C18.4794 39.7105 17.8592 33.5334 20.9642 33.2087C20.9642 33.2087 32.7678 31.9058 37.1132 35.8103C38.5025 37.0499 39.3764 40.8279 39.4691 44.083C37.3186 55.1555 38.0797 67.4423 40.053 80.1887C40.1738 80.9983 40.3067 81.8121 40.4396 82.6258C42.5337 95.2668 45.6991 108.3 48.2926 121Z" fill="#575A89"/>
<path d="M29.4032 23.6458C30.4657 23.5802 31.5031 23.9518 32.5583 24.0968C36.3332 24.6154 40.2603 21.7808 41.0938 17.9357C41.1606 17.4237 41.3081 16.9264 41.5304 16.4638C42.1114 15.4822 43.4345 15.2951 44.5253 15.5208C45.616 15.7465 46.6499 16.2747 47.7608 16.3351C49.4759 16.4282 51.1225 15.3355 52.0365 13.8309C52.9003 12.2786 53.2676 10.4834 53.086 8.7021L52.2638 9.59509C51.9296 8.86367 51.8007 8.04989 51.8915 7.24635C51.0054 7.00217 50.0604 7.25238 49.3967 7.90693C48.6717 7.98678 49.2188 6.51538 48.6802 6.00687C48.4183 5.84032 48.106 5.77988 47.8036 5.83717C46.2612 5.85255 45.0136 4.6318 43.7982 3.64908C41.6923 1.95017 39.2297 0.787788 36.6094 0.255895C34.8678 -0.0956143 33.0158 -0.152092 31.3642 0.518996C30.0308 1.13836 28.8275 2.02167 27.8219 3.11915C25.2361 5.69217 22.9462 8.71538 21.8705 12.2568C20.9959 15.1575 20.9711 18.2612 21.7993 21.1765C22.2328 22.6904 23.5391 27.8754 25.4517 27.9961C27.8548 28.1478 26.412 23.8305 29.4032 23.6458Z" fill="#2F2E41"/>
<path d="M34.7234 43L39.1725 43.5021C39.1725 43.5021 43.5399 52.4281 43.2227 54.2899C42.9055 56.1517 42.2148 55.0214 44.1805 58.0001C46.1462 60.9788 51.7241 68.6783 52.4148 69.8086C53.1056 70.9389 71.936 55.8039 70.7653 51.2692C70.7653 51.2692 76.7125 55.7637 79.2604 56.362C79.2604 56.362 59.8541 83.1731 57.1498 86.6043C54.4455 90.0355 52.269 89.3309 48.5525 87.2964C44.8361 85.262 26.0345 64.9698 26.0345 64.9698L34.7234 43Z" fill="#575A89"/>
<path opacity="0.1" d="M39.5829 84L25.0668 67.3723L28.7403 66L39.2201 81.4978C39.3335 82.329 39.4582 83.1645 39.5829 84Z" fill="black"/>
</svg>
